# xmcd CD database file
#
# Track frame offsets:
#	150
#	73084
#	128784
#	189326
#	248989
#	300585
#
# Disc length: 4693 seconds
#
# Revision: 0
# Processed by: cddbd v1.5.2PL0 Copyright (c) Steve Scherf et al.
# Submitted via: CDex 1.70beta2
#
DISCID=4e125306
DTITLE=Lynn Grabhorn - Excusez-moi mais votre vie attend - CD1
DYEAR=2005
DGENRE=New Age
TTITLE0=Que diable faisons-nous dans ce bourbier?
TTITLE1=Notre bon génie
TTITLE2=Non et non, pas ça !
TTITLE3=Oui, oui, tout ça!
TTITLE4=À bas les conditions!
TTITLE5=Grand Dieu, quelles emotions !
EXTD=YEAR: 2005
EXTT0=
EXTT1=
EXTT2=
EXTT3=
EXTT4=
EXTT5=
PLAYORDER=
